<svg width="349" height="144" viewBox="0 0 349 144" fill="none" xmlns="http://www.w3.org/2000/svg">
<path d="M64.13 143.11C63.37 143.11 62.72 142.96 62.18 142.66C61.64 142.36 61.2233 141.94 60.93 141.4C60.6433 140.853 60.5 140.21 60.5 139.47C60.5 138.917 60.58 138.42 60.74 137.98C60.9067 137.533 61.1467 137.153 61.46 136.84C61.7733 136.52 62.1533 136.273 62.6 136.1C63.0533 135.927 63.5633 135.84 64.13 135.84C64.4633 135.84 64.8 135.883 65.14 135.97C65.4867 136.05 65.7867 136.167 66.04 136.32C66.2067 136.413 66.32 136.53 66.38 136.67C66.44 136.81 66.4567 136.95 66.43 137.09C66.41 137.23 66.3533 137.35 66.26 137.45C66.1733 137.55 66.0633 137.613 65.93 137.64C65.7967 137.667 65.6467 137.637 65.48 137.55C65.28 137.43 65.07 137.343 64.85 137.29C64.63 137.237 64.4067 137.21 64.18 137.21C63.7333 137.21 63.3567 137.3 63.05 137.48C62.75 137.653 62.5233 137.907 62.37 138.24C62.2167 138.573 62.14 138.983 62.14 139.47C62.14 139.95 62.2167 140.36 62.37 140.7C62.5233 141.04 62.75 141.3 63.05 141.48C63.3567 141.653 63.7333 141.74 64.18 141.74C64.3933 141.74 64.61 141.713 64.83 141.66C65.0567 141.607 65.2733 141.523 65.48 141.41C65.6533 141.323 65.8067 141.293 65.94 141.32C66.08 141.34 66.1933 141.4 66.28 141.5C66.3733 141.593 66.43 141.707 66.45 141.84C66.4767 141.973 66.4633 142.107 66.41 142.24C66.3567 142.373 66.2567 142.487 66.11 142.58C65.8633 142.747 65.56 142.877 65.2 142.97C64.84 143.063 64.4833 143.11 64.13 143.11ZM73.0816 143.11C72.3882 143.11 71.7782 142.96 71.2516 142.66C70.7316 142.353 70.3249 141.927 70.0316 141.38C69.7449 140.833 69.6016 140.197 69.6016 139.47C69.6016 138.917 69.6816 138.42 69.8416 137.98C70.0082 137.533 70.2449 137.153 70.5516 136.84C70.8582 136.52 71.2249 136.273 71.6516 136.1C72.0849 135.927 72.5616 135.84 73.0816 135.84C73.7882 135.84 74.4016 135.99 74.9216 136.29C75.4416 136.59 75.8449 137.013 76.1316 137.56C76.4249 138.1 76.5716 138.733 76.5716 139.46C76.5716 140.013 76.4882 140.513 76.3216 140.96C76.1549 141.407 75.9182 141.79 75.6116 142.11C75.3049 142.43 74.9382 142.677 74.5116 142.85C74.0849 143.023 73.6082 143.11 73.0816 143.11ZM73.0816 141.79C73.4749 141.79 73.8082 141.7 74.0816 141.52C74.3616 141.333 74.5749 141.067 74.7216 140.72C74.8749 140.367 74.9516 139.95 74.9516 139.47C74.9516 138.737 74.7882 138.17 74.4616 137.77C74.1349 137.363 73.6749 137.16 73.0816 137.16C72.6949 137.16 72.3616 137.25 72.0816 137.43C71.8016 137.61 71.5882 137.873 71.4416 138.22C71.2949 138.567 71.2216 138.983 71.2216 139.47C71.2216 140.197 71.3849 140.767 71.7116 141.18C72.0382 141.587 72.4949 141.79 73.0816 141.79ZM83.5405 143.11C82.8472 143.11 82.2372 142.96 81.7105 142.66C81.1905 142.353 80.7839 141.927 80.4905 141.38C80.2039 140.833 80.0605 140.197 80.0605 139.47C80.0605 138.917 80.1405 138.42 80.3005 137.98C80.4672 137.533 80.7039 137.153 81.0105 136.84C81.3172 136.52 81.6839 136.273 82.1105 136.1C82.5439 135.927 83.0205 135.84 83.5405 135.84C84.2472 135.84 84.8605 135.99 85.3805 136.29C85.9005 136.59 86.3039 137.013 86.5905 137.56C86.8839 138.1 87.0305 138.733 87.0305 139.46C87.0305 140.013 86.9472 140.513 86.7805 140.96C86.6139 141.407 86.3772 141.79 86.0705 142.11C85.7639 142.43 85.3972 142.677 84.9705 142.85C84.5439 143.023 84.0672 143.11 83.5405 143.11ZM83.5405 141.79C83.9339 141.79 84.2672 141.7 84.5405 141.52C84.8205 141.333 85.0339 141.067 85.1805 140.72C85.3339 140.367 85.4105 139.95 85.4105 139.47C85.4105 138.737 85.2472 138.17 84.9205 137.77C84.5939 137.363 84.1339 137.16 83.5405 137.16C83.1539 137.16 82.8205 137.25 82.5405 137.43C82.2605 137.61 82.0472 137.873 81.9005 138.22C81.7539 138.567 81.6805 138.983 81.6805 139.47C81.6805 140.197 81.8439 140.767 82.1705 141.18C82.4972 141.587 82.9539 141.79 83.5405 141.79ZM91.5095 143.09C91.2562 143.09 91.0629 143.02 90.9295 142.88C90.7962 142.74 90.7295 142.543 90.7295 142.29V136.65C90.7295 136.397 90.7962 136.203 90.9295 136.07C91.0629 135.93 91.2562 135.86 91.5095 135.86C91.7562 135.86 91.9462 135.93 92.0795 136.07C92.2129 136.203 92.2795 136.397 92.2795 136.65V139.02H92.2995L94.9595 136.24C95.0729 136.12 95.1895 136.03 95.3095 135.97C95.4362 135.903 95.5795 135.87 95.7395 135.87C95.9729 135.87 96.1395 135.93 96.2395 136.05C96.3462 136.17 96.3929 136.31 96.3795 136.47C96.3662 136.63 96.2929 136.78 96.1595 136.92L93.4895 139.65L93.4995 138.98L96.2995 141.97C96.4529 142.137 96.5295 142.307 96.5295 142.48C96.5362 142.653 96.4795 142.8 96.3595 142.92C96.2462 143.033 96.0762 143.09 95.8495 143.09C95.6562 143.09 95.4995 143.05 95.3795 142.97C95.2662 142.89 95.1395 142.773 94.9995 142.62L92.2995 139.78H92.2795V142.29C92.2795 142.543 92.2129 142.74 92.0795 142.88C91.9529 143.02 91.7629 143.09 91.5095 143.09ZM100.894 143.09C100.641 143.09 100.448 143.02 100.314 142.88C100.181 142.74 100.114 142.543 100.114 142.29V136.66C100.114 136.407 100.181 136.21 100.314 136.07C100.448 135.93 100.641 135.86 100.894 135.86C101.141 135.86 101.331 135.93 101.464 136.07C101.598 136.21 101.664 136.407 101.664 136.66V142.29C101.664 142.543 101.598 142.74 101.464 142.88C101.338 143.02 101.148 143.09 100.894 143.09ZM106.393 143C106.133 143 105.933 142.93 105.793 142.79C105.653 142.65 105.583 142.45 105.583 142.19V136.76C105.583 136.5 105.653 136.3 105.793 136.16C105.933 136.02 106.133 135.95 106.393 135.95H109.883C110.083 135.95 110.233 136.003 110.333 136.11C110.44 136.21 110.493 136.357 110.493 136.55C110.493 136.75 110.44 136.903 110.333 137.01C110.233 137.11 110.083 137.16 109.883 137.16H107.063V138.81H109.653C109.86 138.81 110.013 138.863 110.113 138.97C110.22 139.07 110.273 139.22 110.273 139.42C110.273 139.62 110.22 139.773 110.113 139.88C110.013 139.98 109.86 140.03 109.653 140.03H107.063V141.79H109.883C110.083 141.79 110.233 141.843 110.333 141.95C110.44 142.05 110.493 142.197 110.493 142.39C110.493 142.59 110.44 142.743 110.333 142.85C110.233 142.95 110.083 143 109.883 143H106.393ZM116.56 143.11C116.28 143.11 115.993 143.087 115.7 143.04C115.413 143 115.137 142.94 114.87 142.86C114.61 142.78 114.377 142.68 114.17 142.56C114.023 142.48 113.92 142.377 113.86 142.25C113.8 142.117 113.777 141.983 113.79 141.85C113.81 141.717 113.86 141.6 113.94 141.5C114.027 141.393 114.133 141.327 114.26 141.3C114.393 141.267 114.54 141.29 114.7 141.37C114.973 141.523 115.27 141.637 115.59 141.71C115.917 141.783 116.24 141.82 116.56 141.82C117.047 141.82 117.393 141.747 117.6 141.6C117.807 141.447 117.91 141.257 117.91 141.03C117.91 140.837 117.837 140.683 117.69 140.57C117.543 140.457 117.287 140.36 116.92 140.28L115.79 140.04C115.15 139.907 114.673 139.68 114.36 139.36C114.053 139.033 113.9 138.607 113.9 138.08C113.9 137.747 113.97 137.443 114.11 137.17C114.25 136.897 114.447 136.66 114.7 136.46C114.953 136.26 115.253 136.107 115.6 136C115.953 135.893 116.34 135.84 116.76 135.84C117.133 135.84 117.5 135.887 117.86 135.98C118.22 136.067 118.537 136.197 118.81 136.37C118.943 136.45 119.033 136.553 119.08 136.68C119.133 136.8 119.15 136.923 119.13 137.05C119.117 137.17 119.067 137.277 118.98 137.37C118.9 137.463 118.797 137.523 118.67 137.55C118.543 137.577 118.39 137.547 118.21 137.46C117.99 137.347 117.757 137.263 117.51 137.21C117.263 137.157 117.01 137.13 116.75 137.13C116.47 137.13 116.23 137.167 116.03 137.24C115.837 137.313 115.687 137.417 115.58 137.55C115.48 137.683 115.43 137.837 115.43 138.01C115.43 138.203 115.5 138.36 115.64 138.48C115.78 138.6 116.023 138.697 116.37 138.77L117.5 139.01C118.153 139.15 118.64 139.377 118.96 139.69C119.28 139.997 119.44 140.403 119.44 140.91C119.44 141.243 119.373 141.547 119.24 141.82C119.107 142.087 118.913 142.317 118.66 142.51C118.407 142.703 118.103 142.853 117.75 142.96C117.397 143.06 117 143.11 116.56 143.11ZM128.439 143.09C128.253 143.09 128.099 143.047 127.979 142.96C127.866 142.873 127.793 142.757 127.759 142.61C127.733 142.463 127.763 142.3 127.849 142.12L130.409 136.51C130.516 136.283 130.643 136.12 130.789 136.02C130.936 135.913 131.106 135.86 131.299 135.86C131.493 135.86 131.663 135.913 131.809 136.02C131.956 136.12 132.079 136.283 132.179 136.51L134.759 142.12C134.846 142.3 134.876 142.467 134.849 142.62C134.829 142.767 134.763 142.883 134.649 142.97C134.536 143.05 134.389 143.09 134.209 143.09C133.983 143.09 133.806 143.037 133.679 142.93C133.559 142.823 133.453 142.657 133.359 142.43L132.759 141.04L133.379 141.47H129.209L129.829 141.04L129.239 142.43C129.139 142.663 129.033 142.833 128.919 142.94C128.813 143.04 128.653 143.09 128.439 143.09ZM131.279 137.6L129.999 140.65L129.729 140.26H132.859L132.589 140.65L131.299 137.6H131.279ZM139.049 143.09C138.795 143.09 138.602 143.02 138.469 142.88C138.335 142.74 138.269 142.543 138.269 142.29V136.74C138.269 136.48 138.335 136.283 138.469 136.15C138.609 136.017 138.805 135.95 139.059 135.95H141.489C142.275 135.95 142.882 136.14 143.309 136.52C143.735 136.9 143.949 137.43 143.949 138.11C143.949 138.55 143.852 138.93 143.659 139.25C143.465 139.57 143.185 139.817 142.819 139.99C142.459 140.163 142.015 140.25 141.489 140.25L141.569 140.08H141.979C142.259 140.08 142.502 140.15 142.709 140.29C142.922 140.423 143.105 140.63 143.259 140.91L143.879 142.06C143.972 142.227 144.015 142.39 144.009 142.55C144.002 142.71 143.942 142.84 143.829 142.94C143.715 143.04 143.549 143.09 143.329 143.09C143.109 143.09 142.929 143.043 142.789 142.95C142.655 142.857 142.535 142.713 142.429 142.52L141.469 140.75C141.369 140.563 141.245 140.437 141.099 140.37C140.959 140.303 140.785 140.27 140.579 140.27H139.819V142.29C139.819 142.543 139.752 142.74 139.619 142.88C139.492 143.02 139.302 143.09 139.049 143.09ZM139.819 139.15H141.209C141.622 139.15 141.932 139.067 142.139 138.9C142.352 138.733 142.459 138.483 142.459 138.15C142.459 137.823 142.352 137.577 142.139 137.41C141.932 137.243 141.622 137.16 141.209 137.16H139.819V139.15ZM149.996 143.09C149.743 143.09 149.55 143.02 149.416 142.88C149.283 142.74 149.216 142.543 149.216 142.29V137.23H147.446C147.24 137.23 147.08 137.173 146.966 137.06C146.853 136.947 146.796 136.79 146.796 136.59C146.796 136.383 146.853 136.227 146.966 136.12C147.08 136.007 147.24 135.95 147.446 135.95H152.536C152.743 135.95 152.903 136.007 153.016 136.12C153.13 136.227 153.186 136.383 153.186 136.59C153.186 136.79 153.13 136.947 153.016 137.06C152.903 137.173 152.743 137.23 152.536 137.23H150.766V142.29C150.766 142.543 150.7 142.74 150.566 142.88C150.44 143.02 150.25 143.09 149.996 143.09ZM157.165 143C156.905 143 156.705 142.93 156.565 142.79C156.425 142.65 156.355 142.45 156.355 142.19V136.76C156.355 136.5 156.425 136.3 156.565 136.16C156.705 136.02 156.905 135.95 157.165 135.95H160.655C160.855 135.95 161.005 136.003 161.105 136.11C161.211 136.21 161.265 136.357 161.265 136.55C161.265 136.75 161.211 136.903 161.105 137.01C161.005 137.11 160.855 137.16 160.655 137.16H157.835V138.81H160.425C160.631 138.81 160.785 138.863 160.885 138.97C160.991 139.07 161.045 139.22 161.045 139.42C161.045 139.62 160.991 139.773 160.885 139.88C160.785 139.98 160.631 140.03 160.425 140.03H157.835V141.79H160.655C160.855 141.79 161.005 141.843 161.105 141.95C161.211 142.05 161.265 142.197 161.265 142.39C161.265 142.59 161.211 142.743 161.105 142.85C161.005 142.95 160.855 143 160.655 143H157.165ZM167.332 143.11C167.052 143.11 166.765 143.087 166.472 143.04C166.185 143 165.908 142.94 165.642 142.86C165.382 142.78 165.148 142.68 164.942 142.56C164.795 142.48 164.692 142.377 164.632 142.25C164.572 142.117 164.548 141.983 164.562 141.85C164.582 141.717 164.632 141.6 164.712 141.5C164.798 141.393 164.905 141.327 165.032 141.3C165.165 141.267 165.312 141.29 165.472 141.37C165.745 141.523 166.042 141.637 166.362 141.71C166.688 141.783 167.012 141.82 167.332 141.82C167.818 141.82 168.165 141.747 168.372 141.6C168.578 141.447 168.682 141.257 168.682 141.03C168.682 140.837 168.608 140.683 168.462 140.57C168.315 140.457 168.058 140.36 167.692 140.28L166.562 140.04C165.922 139.907 165.445 139.68 165.132 139.36C164.825 139.033 164.672 138.607 164.672 138.08C164.672 137.747 164.742 137.443 164.882 137.17C165.022 136.897 165.218 136.66 165.472 136.46C165.725 136.26 166.025 136.107 166.372 136C166.725 135.893 167.112 135.84 167.532 135.84C167.905 135.84 168.272 135.887 168.632 135.98C168.992 136.067 169.308 136.197 169.582 136.37C169.715 136.45 169.805 136.553 169.852 136.68C169.905 136.8 169.922 136.923 169.902 137.05C169.888 137.17 169.838 137.277 169.752 137.37C169.672 137.463 169.568 137.523 169.442 137.55C169.315 137.577 169.162 137.547 168.982 137.46C168.762 137.347 168.528 137.263 168.282 137.21C168.035 137.157 167.782 137.13 167.522 137.13C167.242 137.13 167.002 137.167 166.802 137.24C166.608 137.313 166.458 137.417 166.352 137.55C166.252 137.683 166.202 137.837 166.202 138.01C166.202 138.203 166.272 138.36 166.412 138.48C166.552 138.6 166.795 138.697 167.142 138.77L168.272 139.01C168.925 139.15 169.412 139.377 169.732 139.69C170.052 139.997 170.212 140.403 170.212 140.91C170.212 141.243 170.145 141.547 170.012 141.82C169.878 142.087 169.685 142.317 169.432 142.51C169.178 142.703 168.875 142.853 168.522 142.96C168.168 143.06 167.772 143.11 167.332 143.11ZM173.849 143.09C173.663 143.09 173.509 143.047 173.389 142.96C173.276 142.873 173.203 142.757 173.169 142.61C173.143 142.463 173.173 142.3 173.259 142.12L175.819 136.51C175.926 136.283 176.053 136.12 176.199 136.02C176.346 135.913 176.516 135.86 176.709 135.86C176.903 135.86 177.073 135.913 177.219 136.02C177.366 136.12 177.489 136.283 177.589 136.51L180.169 142.12C180.256 142.3 180.286 142.467 180.259 142.62C180.239 142.767 180.173 142.883 180.059 142.97C179.946 143.05 179.799 143.09 179.619 143.09C179.393 143.09 179.216 143.037 179.089 142.93C178.969 142.823 178.863 142.657 178.769 142.43L178.169 141.04L178.789 141.47H174.619L175.239 141.04L174.649 142.43C174.549 142.663 174.443 142.833 174.329 142.94C174.223 143.04 174.063 143.09 173.849 143.09ZM176.689 137.6L175.409 140.65L175.139 140.26H178.269L177.999 140.65L176.709 137.6H176.689ZM184.399 143.09C184.165 143.09 183.985 143.027 183.859 142.9C183.739 142.767 183.679 142.58 183.679 142.34V136.64C183.679 136.387 183.739 136.193 183.859 136.06C183.985 135.927 184.152 135.86 184.359 135.86C184.539 135.86 184.675 135.897 184.769 135.97C184.869 136.037 184.982 136.15 185.109 136.31L188.619 140.78H188.349V136.6C188.349 136.367 188.409 136.187 188.529 136.06C188.655 135.927 188.835 135.86 189.069 135.86C189.302 135.86 189.479 135.927 189.599 136.06C189.725 136.187 189.789 136.367 189.789 136.6V142.37C189.789 142.59 189.732 142.767 189.619 142.9C189.505 143.027 189.352 143.09 189.159 143.09C188.972 143.09 188.822 143.053 188.709 142.98C188.602 142.907 188.485 142.79 188.359 142.63L184.859 138.16H185.119V142.34C185.119 142.58 185.059 142.767 184.939 142.9C184.819 143.027 184.639 143.09 184.399 143.09ZM193.908 143.09C193.721 143.09 193.568 143.047 193.448 142.96C193.335 142.873 193.261 142.757 193.228 142.61C193.201 142.463 193.231 142.3 193.318 142.12L195.878 136.51C195.985 136.283 196.111 136.12 196.258 136.02C196.405 135.913 196.575 135.86 196.768 135.86C196.961 135.86 197.131 135.913 197.278 136.02C197.425 136.12 197.548 136.283 197.648 136.51L200.228 142.12C200.315 142.3 200.345 142.467 200.318 142.62C200.298 142.767 200.231 142.883 200.118 142.97C200.005 143.05 199.858 143.09 199.678 143.09C199.451 143.09 199.275 143.037 199.148 142.93C199.028 142.823 198.921 142.657 198.828 142.43L198.228 141.04L198.848 141.47H194.678L195.298 141.04L194.708 142.43C194.608 142.663 194.501 142.833 194.388 142.94C194.281 143.04 194.121 143.09 193.908 143.09ZM196.748 137.6L195.468 140.65L195.198 140.26H198.328L198.058 140.65L196.768 137.6H196.748ZM204.517 143.09C204.264 143.09 204.071 143.02 203.937 142.88C203.804 142.74 203.737 142.543 203.737 142.29V136.66C203.737 136.407 203.804 136.21 203.937 136.07C204.071 135.93 204.264 135.86 204.517 135.86C204.764 135.86 204.954 135.93 205.087 136.07C205.221 136.21 205.287 136.407 205.287 136.66V142.29C205.287 142.543 205.221 142.74 205.087 142.88C204.961 143.02 204.771 143.09 204.517 143.09ZM211.726 143.11C211.446 143.11 211.159 143.087 210.866 143.04C210.579 143 210.303 142.94 210.036 142.86C209.776 142.78 209.543 142.68 209.336 142.56C209.189 142.48 209.086 142.377 209.026 142.25C208.966 142.117 208.943 141.983 208.956 141.85C208.976 141.717 209.026 141.6 209.106 141.5C209.193 141.393 209.299 141.327 209.426 141.3C209.559 141.267 209.706 141.29 209.866 141.37C210.139 141.523 210.436 141.637 210.756 141.71C211.083 141.783 211.406 141.82 211.726 141.82C212.213 141.82 212.559 141.747 212.766 141.6C212.973 141.447 213.076 141.257 213.076 141.03C213.076 140.837 213.003 140.683 212.856 140.57C212.709 140.457 212.453 140.36 212.086 140.28L210.956 140.04C210.316 139.907 209.839 139.68 209.526 139.36C209.219 139.033 209.066 138.607 209.066 138.08C209.066 137.747 209.136 137.443 209.276 137.17C209.416 136.897 209.613 136.66 209.866 136.46C210.119 136.26 210.419 136.107 210.766 136C211.119 135.893 211.506 135.84 211.926 135.84C212.299 135.84 212.666 135.887 213.026 135.98C213.386 136.067 213.703 136.197 213.976 136.37C214.109 136.45 214.199 136.553 214.246 136.68C214.299 136.8 214.316 136.923 214.296 137.05C214.283 137.17 214.233 137.277 214.146 137.37C214.066 137.463 213.963 137.523 213.836 137.55C213.709 137.577 213.556 137.547 213.376 137.46C213.156 137.347 212.923 137.263 212.676 137.21C212.429 137.157 212.176 137.13 211.916 137.13C211.636 137.13 211.396 137.167 211.196 137.24C211.003 137.313 210.853 137.417 210.746 137.55C210.646 137.683 210.596 137.837 210.596 138.01C210.596 138.203 210.666 138.36 210.806 138.48C210.946 138.6 211.189 138.697 211.536 138.77L212.666 139.01C213.319 139.15 213.806 139.377 214.126 139.69C214.446 139.997 214.606 140.403 214.606 140.91C214.606 141.243 214.539 141.547 214.406 141.82C214.273 142.087 214.079 142.317 213.826 142.51C213.573 142.703 213.269 142.853 212.916 142.96C212.563 143.06 212.166 143.11 211.726 143.11Z" fill="black"/>
<g filter="url(#filter0_bi_18_58)">
<path d="M35.968 132.536C26.4107 132.536 18.7307 129.507 12.928 123.448C7.12533 117.304 4.224 108.088 4.224 95.8C4.224 85.6453 6.528 76.0453 11.136 67C15.8293 57.9547 22.016 50.744 29.696 45.368C37.4613 39.9067 45.6533 37.176 54.272 37.176C62.208 37.176 68.224 38.84 72.32 42.168C76.5013 45.4107 78.592 49.848 78.592 55.48C78.592 60.1733 77.3547 64.5253 74.88 68.536C72.4907 72.5467 69.504 75.704 65.92 78.008C62.336 80.312 58.9227 81.464 55.68 81.464C54.3147 81.464 53.1627 81.1227 52.224 80.44C51.3707 79.7573 50.944 78.9467 50.944 78.008C50.944 77.6667 51.1147 77.0693 51.456 76.216C53.9307 71.5227 55.168 67.6827 55.168 64.696C55.168 62.5627 54.4853 60.984 53.12 59.96C51.84 58.8507 50.0907 58.296 47.872 58.296C44.1173 58.296 40.6613 59.4907 37.504 61.88C34.3467 64.184 31.872 67.2987 30.08 71.224C28.288 75.064 27.392 79.0747 27.392 83.256C27.392 89.3147 29.5253 94.3493 33.792 98.36C38.144 102.285 44.3733 104.248 52.48 104.248C57.0027 104.248 61.2267 103.608 65.152 102.328C69.1627 101.048 72.1493 98.9147 74.112 95.928C74.624 95.16 75.3067 94.776 76.16 94.776C77.2693 94.776 78.2507 95.288 79.104 96.312C80.0427 97.336 80.2987 98.2747 79.872 99.128C74.3253 110.307 68.0107 118.669 60.928 124.216C53.9307 129.763 45.6107 132.536 35.968 132.536ZM134.997 95.928C135.338 95.3307 135.978 95.032 136.917 95.032C138.112 95.032 139.178 95.4587 140.117 96.312C141.056 97.1653 141.269 98.104 140.757 99.128C138.368 104.163 135.424 108.344 131.925 111.672C128.426 115 123.904 116.664 118.357 116.664H116.821C113.578 121.101 109.738 124.6 105.301 127.16C100.949 129.72 96.4263 131 91.733 131C85.845 131 81.0663 129.08 77.397 125.24C73.7277 121.315 71.893 116.067 71.893 109.496C71.893 103.011 73.429 96.4827 76.501 89.912C79.6583 83.256 83.925 77.7947 89.301 73.528C94.677 69.176 100.608 67 107.093 67C112.725 67 117.248 68.792 120.661 72.376C124.074 75.8747 125.781 81.4213 125.781 89.016C125.781 93.5387 125.141 97.9333 123.861 102.2H124.757C128.682 102.2 132.096 100.109 134.997 95.928ZM99.029 104.504C101.077 104.504 102.912 103.907 104.533 102.712C106.24 101.432 107.562 99.8533 108.501 97.976C109.44 96.0987 109.909 94.264 109.909 92.472C109.909 90.5093 109.312 88.888 108.117 87.608C107.008 86.328 105.258 85.688 102.869 85.688C99.8823 85.688 97.365 86.9253 95.317 89.4C93.3543 91.8747 92.373 94.6053 92.373 97.592C92.373 99.64 92.885 101.304 93.909 102.584C95.0183 103.864 96.725 104.504 99.029 104.504ZM195.872 95.928C196.213 95.3307 196.853 95.032 197.792 95.032C198.987 95.032 200.053 95.4587 200.992 96.312C201.931 97.1653 202.144 98.104 201.632 99.128C199.243 104.163 196.299 108.344 192.8 111.672C189.301 115 184.779 116.664 179.232 116.664H177.696C174.453 121.101 170.613 124.6 166.176 127.16C161.824 129.72 157.301 131 152.608 131C146.72 131 141.941 129.08 138.272 125.24C134.603 121.315 132.768 116.067 132.768 109.496C132.768 103.011 134.304 96.4827 137.376 89.912C140.533 83.256 144.8 77.7947 150.176 73.528C155.552 69.176 161.483 67 167.968 67C173.6 67 178.123 68.792 181.536 72.376C184.949 75.8747 186.656 81.4213 186.656 89.016C186.656 93.5387 186.016 97.9333 184.736 102.2H185.632C189.557 102.2 192.971 100.109 195.872 95.928ZM159.904 104.504C161.952 104.504 163.787 103.907 165.408 102.712C167.115 101.432 168.437 99.8533 169.376 97.976C170.315 96.0987 170.784 94.264 170.784 92.472C170.784 90.5093 170.187 88.888 168.992 87.608C167.883 86.328 166.133 85.688 163.744 85.688C160.757 85.688 158.24 86.9253 156.192 89.4C154.229 91.8747 153.248 94.6053 153.248 97.592C153.248 99.64 153.76 101.304 154.784 102.584C155.893 103.864 157.6 104.504 159.904 104.504ZM201.579 131C194.923 131 191.595 126.605 191.595 117.816C191.595 111.501 193.046 104.205 195.947 95.928L198.763 87.736C203.286 74.5947 206.742 64.952 209.131 58.808C211.606 52.5787 214.123 47.7147 216.683 44.216C219.243 40.7173 222.059 38.968 225.131 38.968C228.544 38.968 230.251 40.504 230.251 43.576C230.251 45.5387 229.568 48.0133 228.203 51C226.838 54.072 225.771 56.376 225.003 57.912C222.187 63.9707 219.968 69.0053 218.347 73.016C216.811 76.9413 215.616 81.0373 214.763 85.304C214.592 86.328 214.806 87.1387 215.403 87.736C216 88.3333 216.768 88.632 217.707 88.632C218.56 88.632 219.371 88.4187 220.139 87.992C220.907 87.48 221.462 86.84 221.803 86.072C224.619 79.7573 227.606 75.0213 230.763 71.864C234.006 68.6213 237.803 67 242.155 67C245.824 67 248.598 67.9813 250.475 69.944C252.438 71.8213 253.419 74.168 253.419 76.984C253.419 85.688 248.128 90.04 237.547 90.04C235.499 90.1253 233.963 90.7227 232.939 91.832C231.915 92.856 231.403 94.1787 231.403 95.8C231.403 97.9333 232.427 99.5973 234.475 100.792C236.523 101.901 239.339 102.456 242.923 102.456C251.456 102.456 257.131 100.28 259.947 95.928C260.63 94.7333 261.526 94.136 262.635 94.136C263.488 94.136 264.256 94.5627 264.939 95.416C265.622 96.184 265.963 97.0373 265.963 97.976C265.963 98.488 265.878 98.872 265.707 99.128C265.28 99.8107 264.896 100.536 264.555 101.304C264.214 101.987 263.872 102.627 263.531 103.224C259.776 110.989 255.638 117.56 251.115 122.936C246.592 128.312 241.003 131 234.347 131C230.08 131 226.88 129.08 224.747 125.24C222.614 121.4 220.907 114.915 219.627 105.784C219.456 104.333 218.987 103.224 218.219 102.456C217.536 101.688 216.726 101.304 215.787 101.304C214.678 101.304 213.696 101.901 212.843 103.096C212.075 104.205 211.691 105.741 211.691 107.704V117.432C211.691 126.477 208.32 131 201.579 131Z" fill="#0F413C"/>
</g>
<g filter="url(#filter1_bi_18_58)">
<path d="M36.968 119.536C27.4107 119.536 19.7307 116.507 13.928 110.448C8.12533 104.304 5.224 95.088 5.224 82.8C5.224 72.6453 7.528 63.0453 12.136 54C16.8293 44.9547 23.016 37.744 30.696 32.368C38.4613 26.9067 46.6533 24.176 55.272 24.176C63.208 24.176 69.224 25.84 73.32 29.168C77.5013 32.4107 79.592 36.848 79.592 42.48C79.592 47.1733 78.3547 51.5253 75.88 55.536C73.4907 59.5467 70.504 62.704 66.92 65.008C63.336 67.312 59.9227 68.464 56.68 68.464C55.3147 68.464 54.1627 68.1227 53.224 67.44C52.3707 66.7573 51.944 65.9467 51.944 65.008C51.944 64.6667 52.1147 64.0693 52.456 63.216C54.9307 58.5227 56.168 54.6827 56.168 51.696C56.168 49.5627 55.4853 47.984 54.12 46.96C52.84 45.8507 51.0907 45.296 48.872 45.296C45.1173 45.296 41.6613 46.4907 38.504 48.88C35.3467 51.184 32.872 54.2987 31.08 58.224C29.288 62.064 28.392 66.0747 28.392 70.256C28.392 76.3147 30.5253 81.3493 34.792 85.36C39.144 89.2853 45.3733 91.248 53.48 91.248C58.0027 91.248 62.2267 90.608 66.152 89.328C70.1627 88.048 73.1493 85.9147 75.112 82.928C75.624 82.16 76.3067 81.776 77.16 81.776C78.2693 81.776 79.2507 82.288 80.104 83.312C81.0427 84.336 81.2987 85.2747 80.872 86.128C75.3253 97.3067 69.0107 105.669 61.928 111.216C54.9307 116.763 46.6107 119.536 36.968 119.536ZM135.997 82.928C136.338 82.3307 136.978 82.032 137.917 82.032C139.112 82.032 140.178 82.4587 141.117 83.312C142.056 84.1653 142.269 85.104 141.757 86.128C139.368 91.1627 136.424 95.344 132.925 98.672C129.426 102 124.904 103.664 119.357 103.664H117.821C114.578 108.101 110.738 111.6 106.301 114.16C101.949 116.72 97.4263 118 92.733 118C86.845 118 82.0663 116.08 78.397 112.24C74.7277 108.315 72.893 103.067 72.893 96.496C72.893 90.0107 74.429 83.4827 77.501 76.912C80.6583 70.256 84.925 64.7947 90.301 60.528C95.677 56.176 101.608 54 108.093 54C113.725 54 118.248 55.792 121.661 59.376C125.074 62.8747 126.781 68.4213 126.781 76.016C126.781 80.5387 126.141 84.9333 124.861 89.2H125.757C129.682 89.2 133.096 87.1093 135.997 82.928ZM100.029 91.504C102.077 91.504 103.912 90.9067 105.533 89.712C107.24 88.432 108.562 86.8533 109.501 84.976C110.44 83.0987 110.909 81.264 110.909 79.472C110.909 77.5093 110.312 75.888 109.117 74.608C108.008 73.328 106.258 72.688 103.869 72.688C100.882 72.688 98.365 73.9253 96.317 76.4C94.3543 78.8747 93.373 81.6053 93.373 84.592C93.373 86.64 93.885 88.304 94.909 89.584C96.0183 90.864 97.725 91.504 100.029 91.504ZM196.872 82.928C197.213 82.3307 197.853 82.032 198.792 82.032C199.987 82.032 201.053 82.4587 201.992 83.312C202.931 84.1653 203.144 85.104 202.632 86.128C200.243 91.1627 197.299 95.344 193.8 98.672C190.301 102 185.779 103.664 180.232 103.664H178.696C175.453 108.101 171.613 111.6 167.176 114.16C162.824 116.72 158.301 118 153.608 118C147.72 118 142.941 116.08 139.272 112.24C135.603 108.315 133.768 103.067 133.768 96.496C133.768 90.0107 135.304 83.4827 138.376 76.912C141.533 70.256 145.8 64.7947 151.176 60.528C156.552 56.176 162.483 54 168.968 54C174.6 54 179.123 55.792 182.536 59.376C185.949 62.8747 187.656 68.4213 187.656 76.016C187.656 80.5387 187.016 84.9333 185.736 89.2H186.632C190.557 89.2 193.971 87.1093 196.872 82.928ZM160.904 91.504C162.952 91.504 164.787 90.9067 166.408 89.712C168.115 88.432 169.437 86.8533 170.376 84.976C171.315 83.0987 171.784 81.264 171.784 79.472C171.784 77.5093 171.187 75.888 169.992 74.608C168.883 73.328 167.133 72.688 164.744 72.688C161.757 72.688 159.24 73.9253 157.192 76.4C155.229 78.8747 154.248 81.6053 154.248 84.592C154.248 86.64 154.76 88.304 155.784 89.584C156.893 90.864 158.6 91.504 160.904 91.504ZM202.579 118C195.923 118 192.595 113.605 192.595 104.816C192.595 98.5013 194.046 91.2053 196.947 82.928L199.763 74.736C204.286 61.5947 207.742 51.952 210.131 45.808C212.606 39.5787 215.123 34.7147 217.683 31.216C220.243 27.7173 223.059 25.968 226.131 25.968C229.544 25.968 231.251 27.504 231.251 30.576C231.251 32.5387 230.568 35.0133 229.203 38C227.838 41.072 226.771 43.376 226.003 44.912C223.187 50.9707 220.968 56.0053 219.347 60.016C217.811 63.9413 216.616 68.0373 215.763 72.304C215.592 73.328 215.806 74.1387 216.403 74.736C217 75.3333 217.768 75.632 218.707 75.632C219.56 75.632 220.371 75.4187 221.139 74.992C221.907 74.48 222.462 73.84 222.803 73.072C225.619 66.7573 228.606 62.0213 231.763 58.864C235.006 55.6213 238.803 54 243.155 54C246.824 54 249.598 54.9813 251.475 56.944C253.438 58.8213 254.419 61.168 254.419 63.984C254.419 72.688 249.128 77.04 238.547 77.04C236.499 77.1253 234.963 77.7227 233.939 78.832C232.915 79.856 232.403 81.1787 232.403 82.8C232.403 84.9333 233.427 86.5973 235.475 87.792C237.523 88.9013 240.339 89.456 243.923 89.456C252.456 89.456 258.131 87.28 260.947 82.928C261.63 81.7333 262.526 81.136 263.635 81.136C264.488 81.136 265.256 81.5627 265.939 82.416C266.622 83.184 266.963 84.0373 266.963 84.976C266.963 85.488 266.878 85.872 266.707 86.128C266.28 86.8107 265.896 87.536 265.555 88.304C265.214 88.9867 264.872 89.6267 264.531 90.224C260.776 97.9893 256.638 104.56 252.115 109.936C247.592 115.312 242.003 118 235.347 118C231.08 118 227.88 116.08 225.747 112.24C223.614 108.4 221.907 101.915 220.627 92.784C220.456 91.3333 219.987 90.224 219.219 89.456C218.536 88.688 217.726 88.304 216.787 88.304C215.678 88.304 214.696 88.9013 213.843 90.096C213.075 91.2053 212.691 92.7413 212.691 94.704V104.432C212.691 113.477 209.32 118 202.579 118Z" fill="#FFBF00"/>
</g>
<defs>
<filter id="filter0_bi_18_58" x="0.223999" y="33.176" width="269.739" height="103.36" filterUnits="userSpaceOnUse" color-interpolation-filters="sRGB">
<feFlood flood-opacity="0" result="BackgroundImageFix"/>
<feGaussianBlur in="BackgroundImageFix" stdDeviation="2"/>
<feComposite in2="SourceAlpha" operator="in" result="effect1_backgroundBlur_18_58"/>
<feBlend mode="normal" in="SourceGraphic" in2="effect1_backgroundBlur_18_58" result="shape"/>
<feColorMatrix in="SourceAlpha" type="matrix" values="0 0 0 0 0 0 0 0 0 0 0 0 0 0 0 0 0 0 127 0" result="hardAlpha"/>
<feOffset dy="4"/>
<feGaussianBlur stdDeviation="2"/>
<feComposite in2="hardAlpha" operator="arithmetic" k2="-1" k3="1"/>
<feColorMatrix type="matrix" values="0 0 0 0 0 0 0 0 0 0 0 0 0 0 0 0 0 0 0.25 0"/>
<feBlend mode="normal" in2="shape" result="effect2_innerShadow_18_58"/>
</filter>
<filter id="filter1_bi_18_58" x="1.224" y="20.176" width="269.739" height="103.36" filterUnits="userSpaceOnUse" color-interpolation-filters="sRGB">
<feFlood flood-opacity="0" result="BackgroundImageFix"/>
<feGaussianBlur in="BackgroundImageFix" stdDeviation="2"/>
<feComposite in2="SourceAlpha" operator="in" result="effect1_backgroundBlur_18_58"/>
<feBlend mode="normal" in="SourceGraphic" in2="effect1_backgroundBlur_18_58" result="shape"/>
<feColorMatrix in="SourceAlpha" type="matrix" values="0 0 0 0 0 0 0 0 0 0 0 0 0 0 0 0 0 0 127 0" result="hardAlpha"/>
<feOffset dy="4"/>
<feGaussianBlur stdDeviation="2"/>
<feComposite in2="hardAlpha" operator="arithmetic" k2="-1" k3="1"/>
<feColorMatrix type="matrix" values="0 0 0 0 0 0 0 0 0 0 0 0 0 0 0 0 0 0 0.25 0"/>
<feBlend mode="normal" in2="shape" result="effect2_innerShadow_18_58"/>
</filter>
</defs>
</svg>
